<svg xmlns="http://www.w3.org/2000/svg" xmlns:xlink="http://www.w3.org/1999/xlink" width="500" zoomAndPan="magnify" viewBox="0 0 375 374.999991" height="500" preserveAspectRatio="xMidYMid meet" version="1.0"><defs><clipPath id="7b73c5f69c"><path d="M 85.808594 16.433594 L 289.058594 16.433594 L 289.058594 164.183594 L 85.808594 164.183594 Z M 85.808594 16.433594 " clip-rule="nonzero"/></clipPath><clipPath id="aa31e780b9"><path d="M 85.808594 112.289062 L 289.058594 112.289062 L 289.058594 260.039062 L 85.808594 260.039062 Z M 85.808594 112.289062 " clip-rule="nonzero"/></clipPath><clipPath id="3966a8eaa6"><path d="M 85.808594 210.683594 L 289.058594 210.683594 L 289.058594 358.433594 L 85.808594 358.433594 Z M 85.808594 210.683594 " clip-rule="nonzero"/></clipPath></defs><g clip-path="url(#7b73c5f69c)"><path fill="#38b6ff" d="M 122.550781 164.183594 C 110.386719 164.183594 98.222656 164.183594 85.90625 164.183594 C 119.847656 114.925781 153.636719 65.820312 187.574219 16.5625 C 221.363281 65.820312 255.152344 114.925781 289.09375 164.183594 C 276.929688 164.183594 264.765625 164.183594 252.75 164.183594 L 187.726562 69.574219 Z M 122.550781 164.183594 " fill-opacity="1" fill-rule="nonzero"/></g><g clip-path="url(#aa31e780b9)"><path fill="#38b6ff" d="M 122.550781 260.039062 C 110.386719 260.039062 98.222656 260.039062 85.90625 260.039062 C 119.847656 210.785156 153.636719 161.675781 187.574219 112.417969 C 221.363281 161.675781 255.152344 210.785156 289.09375 260.039062 C 276.929688 260.039062 264.765625 260.039062 252.75 260.039062 L 187.726562 165.429688 Z M 122.550781 260.039062 " fill-opacity="1" fill-rule="nonzero"/></g><g clip-path="url(#3966a8eaa6)"><path fill="#38b6ff" d="M 122.550781 358.433594 C 110.386719 358.433594 98.222656 358.433594 85.90625 358.433594 C 119.847656 309.175781 153.636719 260.070312 187.574219 210.8125 C 221.363281 260.070312 255.152344 309.175781 289.09375 358.433594 C 276.929688 358.433594 264.765625 358.433594 252.75 358.433594 L 187.726562 263.824219 Z M 122.550781 358.433594 " fill-opacity="1" fill-rule="nonzero"/></g></svg>