<svg xmlns="http://www.w3.org/2000/svg" viewBox="0 0 1200 675" width="1200" height="675" preserveAspectRatio="xMidYMid slice" role="img" aria-labelledby="b13-title">
  <title id="b13-title">Contractor compliance tracking matrix</title>
  <defs><pattern id="b13-grid" width="40" height="40" patternUnits="userSpaceOnUse"><path d="M 40 0 L 0 0 0 40" fill="none" stroke="#1e293b" stroke-width="0.5"/></pattern></defs>
  <rect width="1200" height="675" fill="#0f172a"/><rect width="1200" height="675" fill="url(#b13-grid)"/>
  <g transform="translate(80, 70)">
    <text font-family="ui-monospace, 'JetBrains Mono', monospace" font-size="13" fill="#38b6ff" font-weight="700" letter-spacing="0.15em">CONTRACTOR COMPLIANCE DASHBOARD</text>
    <text font-family="Inter, sans-serif" font-size="22" fill="#f1f5f9" font-weight="700" y="32">5 docs × 4 management companies = 20 living docs</text>
  </g>

  <g transform="translate(140, 180)">
    <!-- Column headers (Management companies) -->
    <g font-family="ui-monospace, 'JetBrains Mono', monospace" font-size="10" fill="#94a3b8" letter-spacing="0.1em" font-weight="700">
      <text x="320" y="0" text-anchor="middle">CORE HOA</text>
      <text x="500" y="0" text-anchor="middle">SUMMIT MGMT</text>
      <text x="680" y="0" text-anchor="middle">RIDGEVIEW</text>
      <text x="860" y="0" text-anchor="middle">PINNACLE PM</text>
    </g>

    <!-- Row labels (documents) -->
    <g font-family="ui-monospace, 'JetBrains Mono', monospace" font-size="11" fill="#cbd5e1" letter-spacing="0.05em" font-weight="600">
      <text x="220" y="48" text-anchor="end">General Liability</text>
      <text x="220" y="98" text-anchor="end">Workers&apos; Comp</text>
      <text x="220" y="148" text-anchor="end">Trade License</text>
      <text x="220" y="198" text-anchor="end">W-9</text>
      <text x="220" y="248" text-anchor="end">Commercial Auto</text>
    </g>

    <!-- Matrix cells (5 rows × 4 cols) with status badges -->
    <g>
      <!-- Row 1: GL -->
      <g><rect x="240" y="30" width="160" height="36" rx="4" fill="#1e293b" stroke="#10b981"/><circle cx="260" cy="48" r="4" fill="#10b981"/><text x="276" y="52" font-family="ui-monospace, 'JetBrains Mono', monospace" font-size="10" fill="#10b981" font-weight="700">CURRENT</text><text x="390" y="52" text-anchor="end" font-family="ui-monospace, 'JetBrains Mono', monospace" font-size="9" fill="#94a3b8">EXP 03/2027</text></g>
      <g><rect x="420" y="30" width="160" height="36" rx="4" fill="#1e293b" stroke="#10b981"/><circle cx="440" cy="48" r="4" fill="#10b981"/><text x="456" y="52" font-family="ui-monospace, 'JetBrains Mono', monospace" font-size="10" fill="#10b981" font-weight="700">CURRENT</text><text x="570" y="52" text-anchor="end" font-family="ui-monospace, 'JetBrains Mono', monospace" font-size="9" fill="#94a3b8">EXP 03/2027</text></g>
      <g><rect x="600" y="30" width="160" height="36" rx="4" fill="#1e293b" stroke="#10b981"/><circle cx="620" cy="48" r="4" fill="#10b981"/><text x="636" y="52" font-family="ui-monospace, 'JetBrains Mono', monospace" font-size="10" fill="#10b981" font-weight="700">CURRENT</text><text x="750" y="52" text-anchor="end" font-family="ui-monospace, 'JetBrains Mono', monospace" font-size="9" fill="#94a3b8">EXP 03/2027</text></g>
      <g><rect x="780" y="30" width="160" height="36" rx="4" fill="#1e293b" stroke="#f59e0b"/><circle cx="800" cy="48" r="4" fill="#f59e0b"/><text x="816" y="52" font-family="ui-monospace, 'JetBrains Mono', monospace" font-size="10" fill="#f59e0b" font-weight="700">RENEW</text><text x="930" y="52" text-anchor="end" font-family="ui-monospace, 'JetBrains Mono', monospace" font-size="9" fill="#f59e0b">EXP 14D</text></g>

      <!-- Row 2: WC -->
      <g><rect x="240" y="80" width="160" height="36" rx="4" fill="#1e293b" stroke="#10b981"/><circle cx="260" cy="98" r="4" fill="#10b981"/><text x="276" y="102" font-family="ui-monospace, 'JetBrains Mono', monospace" font-size="10" fill="#10b981" font-weight="700">CURRENT</text></g>
      <g><rect x="420" y="80" width="160" height="36" rx="4" fill="#1e293b" stroke="#10b981"/><circle cx="440" cy="98" r="4" fill="#10b981"/><text x="456" y="102" font-family="ui-monospace, 'JetBrains Mono', monospace" font-size="10" fill="#10b981" font-weight="700">CURRENT</text></g>
      <g><rect x="600" y="80" width="160" height="36" rx="4" fill="#1e293b" stroke="#10b981"/><circle cx="620" cy="98" r="4" fill="#10b981"/><text x="636" y="102" font-family="ui-monospace, 'JetBrains Mono', monospace" font-size="10" fill="#10b981" font-weight="700">CURRENT</text></g>
      <g><rect x="780" y="80" width="160" height="36" rx="4" fill="#1e293b" stroke="#10b981"/><circle cx="800" cy="98" r="4" fill="#10b981"/><text x="816" y="102" font-family="ui-monospace, 'JetBrains Mono', monospace" font-size="10" fill="#10b981" font-weight="700">CURRENT</text></g>

      <!-- Row 3: License -->
      <g><rect x="240" y="130" width="160" height="36" rx="4" fill="#1e293b" stroke="#10b981"/><circle cx="260" cy="148" r="4" fill="#10b981"/><text x="276" y="152" font-family="ui-monospace, 'JetBrains Mono', monospace" font-size="10" fill="#10b981" font-weight="700">CURRENT</text></g>
      <g><rect x="420" y="130" width="160" height="36" rx="4" fill="#1e293b" stroke="#10b981"/><circle cx="440" cy="148" r="4" fill="#10b981"/><text x="456" y="152" font-family="ui-monospace, 'JetBrains Mono', monospace" font-size="10" fill="#10b981" font-weight="700">CURRENT</text></g>
      <g><rect x="600" y="130" width="160" height="36" rx="4" fill="#1e293b" stroke="#10b981"/><circle cx="620" cy="148" r="4" fill="#10b981"/><text x="636" y="152" font-family="ui-monospace, 'JetBrains Mono', monospace" font-size="10" fill="#10b981" font-weight="700">CURRENT</text></g>
      <g><rect x="780" y="130" width="160" height="36" rx="4" fill="#1e293b" stroke="#10b981"/><circle cx="800" cy="148" r="4" fill="#10b981"/><text x="816" y="152" font-family="ui-monospace, 'JetBrains Mono', monospace" font-size="10" fill="#10b981" font-weight="700">CURRENT</text></g>

      <!-- Row 4: W-9 -->
      <g><rect x="240" y="180" width="160" height="36" rx="4" fill="#1e293b" stroke="#10b981"/><circle cx="260" cy="198" r="4" fill="#10b981"/><text x="276" y="202" font-family="ui-monospace, 'JetBrains Mono', monospace" font-size="10" fill="#10b981" font-weight="700">ON FILE</text></g>
      <g><rect x="420" y="180" width="160" height="36" rx="4" fill="#1e293b" stroke="#10b981"/><circle cx="440" cy="198" r="4" fill="#10b981"/><text x="456" y="202" font-family="ui-monospace, 'JetBrains Mono', monospace" font-size="10" fill="#10b981" font-weight="700">ON FILE</text></g>
      <g><rect x="600" y="180" width="160" height="36" rx="4" fill="#1e293b" stroke="#10b981"/><circle cx="620" cy="198" r="4" fill="#10b981"/><text x="636" y="202" font-family="ui-monospace, 'JetBrains Mono', monospace" font-size="10" fill="#10b981" font-weight="700">ON FILE</text></g>
      <g><rect x="780" y="180" width="160" height="36" rx="4" fill="#1e293b" stroke="#10b981"/><circle cx="800" cy="198" r="4" fill="#10b981"/><text x="816" y="202" font-family="ui-monospace, 'JetBrains Mono', monospace" font-size="10" fill="#10b981" font-weight="700">ON FILE</text></g>

      <!-- Row 5: Auto -->
      <g><rect x="240" y="230" width="160" height="36" rx="4" fill="#1e293b" stroke="#10b981"/><circle cx="260" cy="248" r="4" fill="#10b981"/><text x="276" y="252" font-family="ui-monospace, 'JetBrains Mono', monospace" font-size="10" fill="#10b981" font-weight="700">CURRENT</text></g>
      <g><rect x="420" y="230" width="160" height="36" rx="4" fill="#1e293b" stroke="#10b981"/><circle cx="440" cy="248" r="4" fill="#10b981"/><text x="456" y="252" font-family="ui-monospace, 'JetBrains Mono', monospace" font-size="10" fill="#10b981" font-weight="700">CURRENT</text></g>
      <g><rect x="600" y="230" width="160" height="36" rx="4" fill="#1e293b" stroke="#ef4444"/><circle cx="620" cy="248" r="4" fill="#ef4444"/><text x="636" y="252" font-family="ui-monospace, 'JetBrains Mono', monospace" font-size="10" fill="#ef4444" font-weight="700">LAPSED</text><text x="750" y="252" text-anchor="end" font-family="ui-monospace, 'JetBrains Mono', monospace" font-size="9" fill="#ef4444">EXP −3D</text></g>
      <g><rect x="780" y="230" width="160" height="36" rx="4" fill="#1e293b" stroke="#10b981"/><circle cx="800" cy="248" r="4" fill="#10b981"/><text x="816" y="252" font-family="ui-monospace, 'JetBrains Mono', monospace" font-size="10" fill="#10b981" font-weight="700">CURRENT</text></g>
    </g>

    <!-- Status summary -->
    <g transform="translate(0, 320)">
      <text font-family="ui-monospace, 'JetBrains Mono', monospace" font-size="11" fill="#94a3b8" letter-spacing="0.1em" font-weight="700">SUMMARY</text>
      <g transform="translate(0, 22)">
        <circle cx="6" cy="6" r="5" fill="#10b981"/><text x="20" y="10" font-family="ui-monospace, 'JetBrains Mono', monospace" font-size="11" fill="#f1f5f9" font-weight="700">18 CURRENT</text>
        <g transform="translate(140, 0)"><circle cx="6" cy="6" r="5" fill="#f59e0b"/><text x="20" y="10" font-family="ui-monospace, 'JetBrains Mono', monospace" font-size="11" fill="#f59e0b" font-weight="700">1 RENEW SOON</text></g>
        <g transform="translate(310, 0)"><circle cx="6" cy="6" r="5" fill="#ef4444"/><text x="20" y="10" font-family="ui-monospace, 'JetBrains Mono', monospace" font-size="11" fill="#ef4444" font-weight="700">1 LAPSED — RISK OF VENDOR REMOVAL</text></g>
      </g>
    </g>
  </g>

  <g transform="translate(80, 658)"><text font-family="ui-monospace, 'JetBrains Mono', monospace" font-size="11" fill="#475569" letter-spacing="0.12em">FIGURE 1 · CONTRACTOR COMPLIANCE MATRIX</text></g>
</svg>
